<?xml version="1.0" encoding="iso-8859-1"?>
<!-- Generator: Adobe Illustrator 19.0.0, SVG Export Plug-In . SVG Version: 6.00 Build 0)  -->
<svg version="1.1" id="Layer_1" xmlns="http://www.w3.org/2000/svg" xmlns:xlink="http://www.w3.org/1999/xlink" x="0px" y="0px"
	 viewBox="0 0 512.003 512.003" style="enable-background:new 0 0 512.003 512.003;" xml:space="preserve">
<path style="fill:#CC9758;" d="M369.605,306.038c-8.761-2.945-14.605-11.228-14.596-20.471v-0.172
	c0-54.714-44.354-99.068-99.068-99.068s-99.069,44.354-99.069,99.068v0.172c0.008,9.241-5.837,17.526-14.596,20.471
	c-39.361,13.232-67.677,50.505-67.479,94.371c0.241,53.438,43.636,97.538,97.066,98.593c6.172,0.122,12.218-0.321,18.091-1.281
	c43.757-7.147,88.216-7.15,131.971,0c5.875,0.96,11.923,1.403,18.097,1.281c53.429-1.055,96.825-45.156,97.064-98.594
	C437.282,356.542,408.966,319.268,369.605,306.038z"/>
<path style="fill:#B78046;" d="M340.989,332.939c-6.554-2.204-10.928-8.402-10.922-15.316v-0.128
	c0-40.94-33.188-74.128-74.128-74.128s-74.128,33.188-74.128,74.128v0.128c0.007,6.916-4.367,13.114-10.922,15.316
	c-29.452,9.9-50.639,37.789-50.492,70.613c0.179,39.986,32.651,72.983,72.628,73.772c4.619,0.092,9.142-0.24,13.537-0.959
	c32.741-5.348,66.006-5.349,98.747,0c4.396,0.718,8.921,1.05,13.541,0.959c39.978-0.79,72.449-33.787,72.628-73.773
	C391.627,370.728,370.44,342.839,340.989,332.939z"/>
<g>
	<path style="fill:#CC9758;" d="M490.79,261.942c-13.568,27.159-46.583,38.176-73.742,24.608s-38.176-46.583-24.608-73.742
		c13.568-27.159,63.281-71.599,90.439-58.031C510.037,168.345,504.358,234.784,490.79,261.942z"/>
	<path style="fill:#CC9758;" d="M21.089,261.942c13.568,27.159,46.583,38.176,73.742,24.608s38.176-46.583,24.608-73.742
		s-63.281-71.599-90.439-58.031C1.84,168.345,7.521,234.784,21.089,261.942z"/>
	<path style="fill:#CC9758;" d="M401.049,106.603c0,33.558-27.204,60.763-60.763,60.763s-60.763-27.204-60.763-60.763
		s27.204-94.589,60.763-94.589S401.049,73.045,401.049,106.603z"/>
	<path style="fill:#CC9758;" d="M110.829,106.603c0,33.558,27.204,60.763,60.763,60.763s60.763-27.204,60.763-60.763
		s-27.204-94.589-60.763-94.589S110.829,73.045,110.829,106.603z"/>
</g>
<g>
	<path style="fill:#B78046;" d="M480.811,257.721c-10.04,20.098-34.472,28.251-54.569,18.209
		c-20.097-10.04-28.251-34.472-18.209-54.569c10.042-20.096,46.828-52.984,66.925-42.942S490.851,237.624,480.811,257.721z"/>
	<path style="fill:#B78046;" d="M31.068,257.721c10.04,20.098,34.472,28.251,54.569,18.209s28.251-34.472,18.209-54.569
		S57.017,168.378,36.92,178.42S21.027,237.624,31.068,257.721z"/>
	<path style="fill:#B78046;" d="M385.91,118.454c0,24.833-20.132,44.964-44.964,44.964s-44.964-20.132-44.964-44.964
		s20.132-69.996,44.964-69.996C365.778,48.458,385.91,93.622,385.91,118.454z"/>
	<path style="fill:#B78046;" d="M125.969,118.454c0,24.833,20.132,44.964,44.964,44.964s44.964-20.132,44.964-44.964
		s-20.132-69.996-44.964-69.996S125.969,93.622,125.969,118.454z"/>
</g>
<path d="M372.795,297.211c-4.733-1.59-7.91-6.072-7.904-11.16v-0.17c0-60.042-48.848-108.89-108.89-108.89
	s-108.89,48.848-108.89,108.89v0.179c0.004,5.08-3.173,9.562-7.904,11.153c-44.577,14.984-74.384,56.668-74.172,103.725
	c0.145,32.443,14.766,62.963,40.115,83.735c4.196,3.436,10.385,2.825,13.822-1.372c3.439-4.196,2.823-10.383-1.371-13.822
	c-20.805-17.048-32.804-42.061-32.923-68.629c-0.174-38.571,24.254-72.737,60.788-85.018c12.744-4.284,21.301-16.255,21.289-29.78
	v-0.17c0-49.211,40.035-89.246,89.246-89.246s89.246,40.037,89.246,89.246v0.161c-0.013,13.533,8.542,25.506,21.289,29.789
	c36.531,12.281,60.96,46.445,60.788,85.015c-0.215,48.027-39.438,87.871-87.438,88.82c-5.48,0.11-10.967-0.28-16.32-1.154
	c-44.826-7.324-90.294-7.324-135.138,0c-5.351,0.873-10.847,1.265-16.313,1.154c-5.071-0.101-10.153-0.639-15.106-1.6
	c-5.322-1.032-10.479,2.445-11.513,7.768c-1.035,5.325,2.444,10.48,7.77,11.513c6.055,1.176,12.266,1.835,18.462,1.958
	c0.728,0.014,1.452,0.022,2.18,0.022c5.937,0,11.878-0.479,17.688-1.429c42.742-6.982,86.079-6.981,128.805,0
	c6.523,1.066,13.208,1.537,19.875,1.408c58.568-1.156,106.429-49.772,106.692-108.37
	C447.178,353.878,417.37,312.194,372.795,297.211z"/>
<path d="M487.328,146.473c-15.525-7.756-37.014-2.572-60.501,14.601c-18.112,13.242-35.437,32.462-43.111,47.826
	c-2.28,4.56-4.018,9.371-5.166,14.299c-1.23,5.283,2.055,10.563,7.339,11.794c5.28,1.234,10.561-2.055,11.794-7.337
	c0.799-3.432,2.011-6.787,3.605-9.976c6.303-12.613,21.572-29.37,37.133-40.749c16.757-12.251,31.758-17.069,40.131-12.885
	c18.992,9.488,16.334,68.329,3.515,93.99c-11.127,22.27-38.297,31.335-60.568,20.211c-9.067-4.53-16.168-11.743-20.531-20.858
	c-2.341-4.894-8.208-6.962-13.099-4.617c-4.892,2.341-6.96,8.207-4.617,13.099c6.267,13.093,16.457,23.449,29.47,29.949
	c9.27,4.632,19.13,6.825,28.85,6.824c23.789-0.001,46.732-13.141,58.066-35.829c7.677-15.365,12.64-40.761,12.353-63.194
	C511.614,174.526,502.856,154.231,487.328,146.473z"/>
<path d="M99.282,295.819c15.483-7.734,27.026-21.035,32.504-37.452c5.478-16.416,4.235-33.984-3.5-49.465
	c-7.675-15.365-25.002-34.586-43.113-47.827c-23.487-17.172-44.977-22.359-60.502-14.601C9.143,154.231,0.385,174.526,0.012,203.62
	c-0.288,22.434,4.675,47.83,12.353,63.194l0,0c11.335,22.69,34.276,35.828,58.066,35.828
	C80.149,302.643,90.013,300.449,99.282,295.819z M29.936,258.036L29.936,258.036c-12.818-25.66-15.479-84.501,3.513-93.99
	c8.376-4.183,23.375,0.635,40.132,12.885c15.563,11.379,30.832,28.135,37.133,40.75c5.389,10.788,6.256,23.03,2.438,34.468
	c-3.817,11.439-11.862,20.708-22.65,26.096C68.232,289.373,41.063,280.306,29.936,258.036z"/>
<path d="M340.348,177.669c38.921,0,70.584-31.663,70.584-70.584c0-36.674-29.108-104.41-70.584-104.41s-70.583,67.736-70.583,104.41
	C269.764,146.005,301.427,177.669,340.348,177.669z M305.932,52.04c10.677-18.889,23.221-29.721,34.415-29.721
	c11.195,0,23.738,10.833,34.416,29.721c9.884,17.486,16.525,39.607,16.525,55.045c0,28.09-22.852,50.941-50.941,50.941
	c-28.088,0-50.94-22.851-50.94-50.941C289.407,91.647,296.049,69.526,305.932,52.04z"/>
<path d="M171.651,177.669c10.618,0,20.828-2.302,30.35-6.842c4.895-2.335,6.972-8.196,4.637-13.093s-8.195-6.973-13.093-4.637
	c-6.858,3.271-14.224,4.929-21.894,4.929c-28.088,0-50.94-22.851-50.94-50.941c0-15.438,6.641-37.559,16.525-55.045
	c10.677-18.889,23.221-29.721,34.415-29.721c11.194,0,23.738,10.833,34.415,29.721c9.884,17.486,16.525,39.607,16.525,55.045
	c0,10.209-3.007,20.056-8.694,28.476c-3.036,4.494-1.854,10.599,2.641,13.636c4.496,3.037,10.601,1.854,13.636-2.641
	c7.889-11.678,12.06-25.328,12.06-39.471c0-36.674-29.108-104.41-70.583-104.41s-70.583,67.736-70.583,104.41
	C101.068,146.005,132.731,177.669,171.651,177.669z"/>
<g>
</g>
<g>
</g>
<g>
</g>
<g>
</g>
<g>
</g>
<g>
</g>
<g>
</g>
<g>
</g>
<g>
</g>
<g>
</g>
<g>
</g>
<g>
</g>
<g>
</g>
<g>
</g>
<g>
</g>
</svg>
